<svg width="304" height="102" viewBox="0 0 304 102" fill="none" xmlns="http://www.w3.org/2000/svg">
<path d="M67.8515 91.9062V75.179H73.6995C74.8648 75.179 75.8258 75.3804 76.5827 75.7834C77.3396 76.1809 77.9031 76.7172 78.2734 77.3924C78.6437 78.0621 78.8288 78.8054 78.8288 79.6222C78.8288 80.3409 78.7008 80.9344 78.4449 81.4027C78.1945 81.871 77.8623 82.2412 77.4485 82.5135C77.0401 82.7857 76.5963 82.9872 76.1172 83.1179V83.2812C76.629 83.3139 77.1436 83.4936 77.6608 83.8203C78.1781 84.147 78.611 84.6153 78.9595 85.2251C79.308 85.835 79.4822 86.581 79.4822 87.4631C79.4822 88.3016 79.2916 89.0558 78.9105 89.7255C78.5293 90.3952 77.9276 90.9261 77.1054 91.3182C76.2832 91.7102 75.2133 91.9062 73.8956 91.9062H67.8515ZM69.8771 90.1094H73.8956C75.2187 90.1094 76.158 89.8535 76.7134 89.3416C77.2742 88.8243 77.5547 88.1982 77.5547 87.4631C77.5547 86.8968 77.4104 86.3741 77.1218 85.8949C76.8332 85.4103 76.4221 85.0237 75.8885 84.7351C75.3548 84.4411 74.7232 84.294 73.9936 84.294H69.8771V90.1094ZM69.8771 82.5298H73.6342C74.2441 82.5298 74.794 82.41 75.2841 82.1705C75.7796 81.9309 76.1716 81.5933 76.4602 81.1577C76.7542 80.7221 76.9013 80.2102 76.9013 79.6222C76.9013 78.8871 76.6453 78.2636 76.1335 77.7518C75.6217 77.2345 74.8103 76.9759 73.6995 76.9759H69.8771V82.5298ZM88.2691 92.1676C87.0603 92.1676 86.0176 91.9008 85.1409 91.3672C84.2697 90.8281 83.5972 90.0767 83.1235 89.1129C82.6552 88.1437 82.4211 87.0166 82.4211 85.7315C82.4211 84.4465 82.6552 83.3139 83.1235 82.3338C83.5972 81.3482 84.2561 80.5805 85.1001 80.0305C85.9495 79.4751 86.9405 79.1974 88.0731 79.1974C88.7265 79.1974 89.3717 79.3063 90.0088 79.5241C90.6459 79.742 91.2258 80.0959 91.7485 80.5859C92.2712 81.0705 92.6878 81.7131 92.9981 82.5135C93.3085 83.3139 93.4637 84.2995 93.4637 85.4702V86.2869H83.7932V84.6207H91.5035C91.5035 83.9129 91.3619 83.2812 91.0788 82.7259C90.8011 82.1705 90.4036 81.7321 89.8863 81.4109C89.3744 81.0896 88.77 80.929 88.0731 80.929C87.3053 80.929 86.641 81.1196 86.0802 81.5007C85.5248 81.8764 85.0973 82.3665 84.7979 82.9709C84.4984 83.5753 84.3486 84.2232 84.3486 84.9148V86.0256C84.3486 86.973 84.512 87.7762 84.8387 88.435C85.1708 89.0884 85.631 89.5866 86.219 89.9297C86.8071 90.2673 87.4905 90.4361 88.2691 90.4361C88.7755 90.4361 89.2329 90.3653 89.6413 90.2237C90.0551 90.0767 90.4117 89.8589 90.7112 89.5703C91.0107 89.2763 91.2421 88.9115 91.4055 88.4759L93.2677 88.9986C93.0717 89.6302 92.7422 90.1856 92.2794 90.6648C91.8166 91.1385 91.2448 91.5088 90.5642 91.7756C89.8836 92.0369 89.1185 92.1676 88.2691 92.1676ZM101.952 92.1676C100.776 92.1676 99.7635 91.8899 98.9141 91.3345C98.0647 90.7791 97.4113 90.0141 96.9539 89.0394C96.4965 88.0647 96.2678 86.9512 96.2678 85.6989C96.2678 84.4247 96.5019 83.3003 96.9702 82.3256C97.4439 81.3455 98.1028 80.5805 98.9468 80.0305C99.7962 79.4751 100.787 79.1974 101.92 79.1974C102.802 79.1974 103.597 79.3608 104.305 79.6875C105.013 80.0142 105.592 80.4716 106.044 81.0597C106.496 81.6477 106.777 82.3338 106.886 83.1179H104.958C104.811 82.5462 104.484 82.0398 103.978 81.5987C103.477 81.1522 102.802 80.929 101.952 80.929C101.201 80.929 100.542 81.125 99.9759 81.517C99.4151 81.9036 98.9767 82.4509 98.6609 83.1587C98.3505 83.8612 98.1954 84.6861 98.1954 85.6335C98.1954 86.6027 98.3478 87.4467 98.6527 88.1655C98.9631 88.8842 99.3987 89.4424 99.9596 89.8398C100.526 90.2373 101.19 90.4361 101.952 90.4361C102.453 90.4361 102.908 90.349 103.316 90.1747C103.725 90.0005 104.071 89.75 104.354 89.4233C104.637 89.0966 104.838 88.7045 104.958 88.2472H106.886C106.777 88.9877 106.507 89.6547 106.077 90.2482C105.652 90.8363 105.089 91.3046 104.386 91.6531C103.689 91.9961 102.878 92.1676 101.952 92.1676ZM115.26 92.1676C114.128 92.1676 113.134 91.8981 112.279 91.359C111.43 90.82 110.765 90.0658 110.286 89.0966C109.812 88.1274 109.575 86.9948 109.575 85.6989C109.575 84.392 109.812 83.2513 110.286 82.2766C110.765 81.302 111.43 80.5451 112.279 80.006C113.134 79.467 114.128 79.1974 115.26 79.1974C116.393 79.1974 117.384 79.467 118.233 80.006C119.088 80.5451 119.752 81.302 120.226 82.2766C120.705 83.2513 120.945 84.392 120.945 85.6989C120.945 86.9948 120.705 88.1274 120.226 89.0966C119.752 90.0658 119.088 90.82 118.233 91.359C117.384 91.8981 116.393 92.1676 115.26 92.1676ZM115.26 90.4361C116.12 90.4361 116.828 90.2156 117.384 89.7745C117.939 89.3335 118.35 88.7536 118.617 88.0348C118.884 87.3161 119.017 86.5374 119.017 85.6989C119.017 84.8603 118.884 84.079 118.617 83.3548C118.35 82.6306 117.939 82.0452 117.384 81.5987C116.828 81.1522 116.12 80.929 115.26 80.929C114.4 80.929 113.692 81.1522 113.137 81.5987C112.581 82.0452 112.17 82.6306 111.903 83.3548C111.636 84.079 111.503 84.8603 111.503 85.6989C111.503 86.5374 111.636 87.3161 111.903 88.0348C112.17 88.7536 112.581 89.3335 113.137 89.7745C113.692 90.2156 114.4 90.4361 115.26 90.4361ZM124.347 91.9062V79.3608H126.209V81.321H126.373C126.634 80.6513 127.056 80.1313 127.639 79.761C128.221 79.3853 128.921 79.1974 129.738 79.1974C130.565 79.1974 131.254 79.3853 131.804 79.761C132.36 80.1313 132.792 80.6513 133.103 81.321H133.234C133.555 80.6731 134.037 80.1585 134.679 79.7773C135.322 79.3907 136.092 79.1974 136.991 79.1974C138.112 79.1974 139.03 79.5487 139.743 80.2511C140.456 80.948 140.813 82.0343 140.813 83.5099V91.9062H138.886V83.5099C138.886 82.5843 138.632 81.9227 138.126 81.5252C137.62 81.1277 137.023 80.929 136.337 80.929C135.455 80.929 134.772 81.1958 134.287 81.7294C133.803 82.2576 133.56 82.9273 133.56 83.7386V91.9062H131.6V83.3139C131.6 82.6006 131.369 82.0262 130.906 81.5906C130.443 81.1495 129.847 80.929 129.117 80.929C128.616 80.929 128.148 81.0624 127.712 81.3292C127.282 81.596 126.934 81.9663 126.667 82.44C126.405 82.9083 126.275 83.45 126.275 84.0653V91.9062H124.347ZM150.057 92.1676C148.849 92.1676 147.806 91.9008 146.929 91.3672C146.058 90.8281 145.385 90.0767 144.912 89.1129C144.443 88.1437 144.209 87.0166 144.209 85.7315C144.209 84.4465 144.443 83.3139 144.912 82.3338C145.385 81.3482 146.044 80.5805 146.888 80.0305C147.738 79.4751 148.729 79.1974 149.861 79.1974C150.515 79.1974 151.16 79.3063 151.797 79.5241C152.434 79.742 153.014 80.0959 153.537 80.5859C154.059 81.0705 154.476 81.7131 154.786 82.5135C155.097 83.3139 155.252 84.2995 155.252 85.4702V86.2869H145.581V84.6207H153.292C153.292 83.9129 153.15 83.2812 152.867 82.7259C152.589 82.1705 152.192 81.7321 151.675 81.4109C151.163 81.0896 150.558 80.929 149.861 80.929C149.094 80.929 148.429 81.1196 147.868 81.5007C147.313 81.8764 146.886 82.3665 146.586 82.9709C146.287 83.5753 146.137 84.2232 146.137 84.9148V86.0256C146.137 86.973 146.3 87.7762 146.627 88.435C146.959 89.0884 147.419 89.5866 148.007 89.9297C148.595 90.2673 149.279 90.4361 150.057 90.4361C150.564 90.4361 151.021 90.3653 151.43 90.2237C151.843 90.0767 152.2 89.8589 152.499 89.5703C152.799 89.2763 153.03 88.9115 153.194 88.4759L155.056 88.9986C154.86 89.6302 154.53 90.1856 154.068 90.6648C153.605 91.1385 153.033 91.5088 152.352 91.7756C151.672 92.0369 150.907 92.1676 150.057 92.1676ZM165.834 91.9062V75.179H175.929V76.9759H167.86V82.6278H175.407V84.4247H167.86V90.1094H176.06V91.9062H165.834ZM181.216 79.3608L184.222 84.4901L187.228 79.3608H189.449L185.398 85.6335L189.449 91.9062H187.228L184.222 87.0384L181.216 91.9062H178.995L182.981 85.6335L178.995 79.3608H181.216ZM192.66 96.6108V79.3608H194.522V81.3537H194.751C194.892 81.1359 195.088 80.8582 195.339 80.5206C195.595 80.1776 195.96 79.8726 196.433 79.6058C196.912 79.3336 197.56 79.1974 198.377 79.1974C199.434 79.1974 200.365 79.4615 201.171 79.9897C201.976 80.5179 202.605 81.2666 203.057 82.2358C203.509 83.205 203.735 84.3485 203.735 85.6662C203.735 86.9948 203.509 88.1464 203.057 89.1211C202.605 90.0903 201.979 90.8417 201.179 91.3754C200.378 91.9035 199.455 92.1676 198.41 92.1676C197.604 92.1676 196.959 92.0342 196.474 91.7674C195.99 91.4951 195.617 91.1875 195.355 90.8445C195.094 90.496 194.892 90.2074 194.751 89.9787H194.587V96.6108H192.66ZM194.555 85.6335C194.555 86.581 194.694 87.4168 194.971 88.141C195.249 88.8597 195.655 89.4233 196.188 89.8317C196.722 90.2346 197.375 90.4361 198.149 90.4361C198.954 90.4361 199.627 90.2237 200.166 89.799C200.71 89.3688 201.119 88.7917 201.391 88.0675C201.669 87.3378 201.808 86.5265 201.808 85.6335C201.808 84.7514 201.671 83.9564 201.399 83.2486C201.132 82.5353 200.727 81.9717 200.182 81.5579C199.643 81.1386 198.965 80.929 198.149 80.929C197.364 80.929 196.706 81.1277 196.172 81.5252C195.638 81.9173 195.235 82.4672 194.963 83.1751C194.691 83.8775 194.555 84.697 194.555 85.6335ZM212.395 92.1676C211.187 92.1676 210.144 91.9008 209.267 91.3672C208.396 90.8281 207.724 90.0767 207.25 89.1129C206.782 88.1437 206.547 87.0166 206.547 85.7315C206.547 84.4465 206.782 83.3139 207.25 82.3338C207.724 81.3482 208.382 80.5805 209.226 80.0305C210.076 79.4751 211.067 79.1974 212.199 79.1974C212.853 79.1974 213.498 79.3063 214.135 79.5241C214.772 79.742 215.352 80.0959 215.875 80.5859C216.398 81.0705 216.814 81.7131 217.124 82.5135C217.435 83.3139 217.59 84.2995 217.59 85.4702V86.2869H207.92V84.6207H215.63C215.63 83.9129 215.488 83.2812 215.205 82.7259C214.927 82.1705 214.53 81.7321 214.013 81.4109C213.501 81.0896 212.896 80.929 212.199 80.929C211.432 80.929 210.767 81.1196 210.207 81.5007C209.651 81.8764 209.224 82.3665 208.924 82.9709C208.625 83.5753 208.475 84.2232 208.475 84.9148V86.0256C208.475 86.973 208.638 87.7762 208.965 88.435C209.297 89.0884 209.757 89.5866 210.345 89.9297C210.933 90.2673 211.617 90.4361 212.395 90.4361C212.902 90.4361 213.359 90.3653 213.768 90.2237C214.181 90.0767 214.538 89.8589 214.838 89.5703C215.137 89.2763 215.368 88.9115 215.532 88.4759L217.394 88.9986C217.198 89.6302 216.869 90.1856 216.406 90.6648C215.943 91.1385 215.371 91.5088 214.691 91.7756C214.01 92.0369 213.245 92.1676 212.395 92.1676ZM220.982 91.9062V79.3608H222.844V81.2557H222.975C223.204 80.6349 223.618 80.1313 224.217 79.7447C224.816 79.3581 225.491 79.1648 226.242 79.1648C226.384 79.1648 226.561 79.1675 226.773 79.1729C226.985 79.1784 227.146 79.1866 227.255 79.1974V81.1577C227.19 81.1413 227.04 81.1168 226.806 81.0842C226.577 81.046 226.335 81.027 226.079 81.027C225.469 81.027 224.924 81.1549 224.445 81.4109C223.972 81.6613 223.596 82.0098 223.318 82.4563C223.046 82.8974 222.91 83.401 222.91 83.9673V91.9062H220.982ZM236.242 79.3608V80.9943H229.741V79.3608H236.242ZM231.635 76.3551H233.563V88.3125C233.563 88.857 233.642 89.2654 233.8 89.5376C233.963 89.8045 234.17 89.9841 234.421 90.0767C234.676 90.1638 234.946 90.2074 235.229 90.2074C235.442 90.2074 235.616 90.1965 235.752 90.1747C235.888 90.1475 235.997 90.1257 236.079 90.1094L236.471 91.8409C236.34 91.8899 236.158 91.9389 235.923 91.9879C235.689 92.0424 235.392 92.0696 235.033 92.0696C234.489 92.0696 233.955 91.9525 233.432 91.7184C232.915 91.4843 232.485 91.1276 232.142 90.6484C231.804 90.1693 231.635 89.5649 231.635 88.8352V76.3551Z" fill="#929FB1"/>
<path d="M89.2214 46.3948V63.516H77.6055V15.1383C81.7881 15.6833 86.156 13.3785 90.0467 17.023C98.9005 12.3851 105.873 13.2706 111.229 19.8841C116.99 26.9971 116.922 37.4595 111.078 44.4136C105.671 50.8397 98.7545 51.6061 89.2271 46.3948H89.2214ZM103.414 32.0381C103.364 27.7408 100.029 24.2723 96.0428 24.3631C92.1521 24.4539 89.1541 27.8032 89.1765 32.0381C89.199 36.3752 92.1072 39.594 96.054 39.6507C100.164 39.7075 103.465 36.2957 103.414 32.0381Z" fill="white"/>
<path d="M27.0098 49.3988H0V0H27.0717V11.0694H12.2603V38.0688H27.0098V49.3932V49.3988Z" fill="white"/>
<path d="M154.976 33.879H131.146C131.072 37.4956 132.102 40.0892 135.598 40.8689C138.851 41.5988 141.858 41.1786 143.78 37.9325C144.218 37.1915 145.23 36.3564 146.032 36.3067C149.011 36.1131 152.013 36.2292 154.959 36.2292C155.931 45.5085 145.748 49.6505 136.98 49.3906C125.466 49.0477 118.37 41.1896 119.178 29.549C119.843 19.8771 128.588 13.2522 139.419 14.2089C150.137 15.1545 156.528 23.0403 154.981 33.879H154.976ZM144.093 26.6569C143.354 23.0845 141.182 21.7573 137.975 21.8403C134.825 21.9177 132.062 22.6642 131.578 26.6569H144.093Z" fill="white"/>
<path d="M261.548 33.9654H237.705C237.494 37.3455 238.447 40.2276 241.726 40.6093C244.258 40.9025 247.993 40.3604 249.384 38.7395C251.169 36.654 252.686 36.0952 255.104 36.2059C257.265 36.3054 259.432 36.228 261.594 36.228C261.48 44.8689 254.443 49.748 243.3 49.3829C232.048 49.0178 225.039 41.3838 225.633 30.1373C226.163 20.0416 234.66 13.3147 245.769 14.1943C256.575 15.0518 262.734 22.5199 261.548 33.9654ZM237.836 26.5969H250.742C249.783 23.0233 247.559 21.7343 244.297 21.8228C241.155 21.9058 238.737 22.968 237.836 26.5969Z" fill="white"/>
<path d="M52.1821 24.9483C56.1246 15.362 63.0912 15.1403 71.2227 16.5478C67.017 21.823 62.9848 26.8822 58.8071 32.1186C63.192 37.5712 67.4538 42.8742 72.1915 48.7756C67.7562 48.7756 63.4721 49.8672 60.3248 48.4653C57.2111 47.08 55.2454 43.1789 52.2045 39.7378C48.0884 47.8613 41.8162 51.3412 32.4863 48.3156C36.9217 42.8298 41.3346 37.3717 45.8875 31.7418C41.8554 26.6882 37.9577 21.8064 33.892 16.7085C41.9058 14.7026 48.2508 15.8995 52.1877 24.9483H52.1821Z" fill="white"/>
<path d="M264.83 16.5501C272.894 15.0045 279.615 15.427 283.198 25.2955C287.352 15.4826 294.248 14.9711 302.571 16.5723C298.316 21.8373 294.231 26.8967 290.026 32.1006C294.434 37.5713 298.773 42.9642 303.203 48.4628C294.112 51.1481 288.102 47.9013 283.842 39.0891C279.333 47.9791 272.911 51.2093 263.498 48.4239C268.035 42.8475 272.476 37.3767 277.053 31.7503C272.995 26.7132 269.057 21.8151 264.83 16.5612V16.5501Z" fill="white"/>
<path d="M212.915 49.2213C202.611 50.3732 193.848 45.8497 194.866 34.2063C195.102 31.5259 194.9 28.8061 194.9 25.8503C193.745 25.4907 192.635 25.1423 191.307 24.7265V15.876C198.005 14.4374 193.331 8.75621 195.504 5.28906H206.837C206.837 14.1452 206.837 22.7653 206.837 31.3854C206.837 35.1054 206.59 38.876 211.684 39.9718C212.271 40.0954 212.794 41.6688 212.869 42.6073C213.041 44.737 212.926 46.8949 212.926 49.2157L212.915 49.2213Z" fill="white"/>
<path d="M173.258 15.875V47.6314H160.625V15.875H173.258Z" fill="white"/>
<path d="M221.983 21.873C222.088 24.9841 219.039 28.1217 215.814 28.2219C212.534 28.3274 209.468 25.4587 209.359 22.1841C209.249 18.9305 212.122 15.9723 215.484 15.8773C218.835 15.7824 221.879 18.5878 221.989 21.8677L221.983 21.873Z" fill="#76CFEB"/>
<path d="M187.698 22.0419C187.684 25.289 185.098 28.2405 182.281 28.2246C179.507 28.2088 176.86 25.1729 176.869 22.005C176.874 18.7631 179.455 15.8592 182.319 15.8751C185.201 15.8909 187.717 18.7737 187.698 22.0472V22.0419Z" fill="#76CFEB"/>
<path d="M21.7993 17.6416C25.5969 17.7094 28.9444 20.6736 28.8747 23.9144C28.8049 27.1552 25.3116 30.062 21.5583 29.989C17.8304 29.9159 14.3688 26.8734 14.4385 23.7214C14.5083 20.5484 18.103 17.579 21.7993 17.6416Z" fill="#76CFEB"/>
</svg>
